<?xml version="1.0" standalone="no"?>
<!DOCTYPE svg PUBLIC "-//W3C//DTD SVG 20010904//EN"
 "http://www.w3.org/TR/2001/REC-SVG-20010904/DTD/svg10.dtd">
<svg version="1.0" xmlns="http://www.w3.org/2000/svg"
 width="512.000000pt" height="512.000000pt" viewBox="0 0 512.000000 512.000000"
 preserveAspectRatio="xMidYMid meet">
<metadata>
Created for Catalyst
</metadata>
<g transform="translate(0.000000,512.000000) scale(0.100000,-0.100000)"
fill="#000000" stroke="none">
<path d="M0 2560 l0 -2560 2560 0 2560 0 0 2560 0 2560 -2560 0 -2560 0 0
-2560z m2900 1240 c280 -40 523 -166 715 -371 192 -205 306 -459 336 -749 20
-197 -3 -412 -61 -580 -137 -396 -442 -701 -838 -838 -168 -58 -383 -81 -580
-61 -290 30 -544 144 -749 336 -205 192 -331 435 -371 715 -20 140 -20 200 0
340 40 280 166 523 371 715 192 205 459 306 749 336 140 20 200 20 340 0 69
-10 149 -25 178 -33z"/>
<path d="M2380 3260 c-198 -38 -365 -181 -437 -374 -33 -87 -37 -107 -37 -216
0 -109 4 -129 37 -216 72 -193 239 -336 437 -374 87 -17 193 -17 280 0 198
38 365 181 437 374 33 87 37 107 37 216 0 109 -4 129 -37 216 -72 193 -239
336 -437 374 -87 17 -193 17 -280 0z"/>
</g>
</svg>
